<?xml version="1.0" encoding="utf-8"?>
<!-- Generator: Adobe Illustrator 23.0.6, SVG Export Plug-In . SVG Version: 6.00 Build 0)  -->
<svg version="1.1" id="Layer_1" xmlns="http://www.w3.org/2000/svg" xmlns:xlink="http://www.w3.org/1999/xlink" x="0px" y="0px"
	 viewBox="0 0 1366 768" style="enable-background:new 0 0 1366 768;" xml:space="preserve">
<style type="text/css">
	.st0{fill:#34D9C3;}
</style>
<g id="d9gghR_2_">
	<g>
		<path class="st0" d="M135,377.4c0.4-2.2,0.7-4.4,1.1-6.6c1.9-11.4,6.3-21.8,12.8-31.3c5.6-8.1,12.4-15,20.6-20.5
			c10.1-6.8,21.1-11.2,33.2-12.9c12.8-1.8,25.3-0.6,37.5,3.7c10.1,3.6,19.1,9,27,16.3c12.2,11.2,20.2,24.9,23.7,41.1
			c1.2,5.6,1.9,11.3,1.9,17c0.2,26.3,0.1,52.6,0.1,78.8c0,8.6-1.4,17.1-4.3,25.2c-5.6,15.9-15.2,28.9-29,38.6
			c-11.2,7.9-23.5,12.7-37.2,14.1c-21.7,2.2-41.2-3.5-58.2-17.1c-11.3-9-19.4-20.4-24.4-34.1c-0.8-2.2-1.5-4.5-2.4-7.1
			c0.9,0,1.6-0.1,2.3-0.1c9,0,18.1,0,27.1,0c1.5,0,2.3,0.5,2.9,1.8c7.7,14.9,19.8,24.2,36.3,26.9c24.2,4,46.8-10.3,54.5-32.7
			c1.9-5.4,2.7-11,2.7-16.7c0-4.5,0-8.9,0-13.4c0-0.7,0-1.3,0-2.4c-1.9,1.3-3.5,2.4-5.1,3.5c-10.4,7.1-21.9,11.5-34.4,13
			c-14.8,1.8-29.1-0.3-42.7-6.6c-13.7-6.3-24.7-15.8-33.1-28.4c-7.1-10.7-11.4-22.6-12.6-35.4c0-0.3-0.2-0.5-0.4-0.7
			C135,386.8,135,382.1,135,377.4z M263.2,384.3c0-27.1-21.6-48.3-47.4-49.2c-28.5-1-50.8,21.6-51.2,48.3
			c-0.4,27.7,21.4,48.9,46.8,50.1C240.3,434.8,263.1,411.8,263.2,384.3z"/>
		<path class="st0" d="M789.1,227.2c-0.1,0.9-0.2,1.7-0.2,2.6c0,51.3,0,102.5,0,153.8c0,8.5-1.1,16.8-3.8,24.9
			c-3.5,10.7-8.9,20.2-16.5,28.6c-8,8.8-17.4,15.6-28.4,20.2c-9,3.7-18.3,5.7-28,6c-9.8,0.3-19.4-1.1-28.7-4.4
			c-15.5-5.6-28.1-15.1-37.8-28.4c-7.4-10.2-12.1-21.5-13.9-34c-2.8-19.5,0.9-37.7,11.5-54.4c8.7-13.6,20.5-23.6,35.3-30.1
			c7.4-3.3,15.2-5.2,23.3-6c15.5-1.5,30.2,1.2,44,8.4c4.2,2.2,8,5,12,7.6c0.2,0.2,0.5,0.3,1,0.6c0.1-0.8,0.2-1.4,0.2-1.9
			c0-30.5,0-61.1,0-91.6c0-0.5-0.1-1.1-0.2-1.6C769.1,227.2,779.1,227.2,789.1,227.2z M759.2,384.2c-0.1-27.3-22.1-48.6-48-49.2
			c-28.3-0.6-50.6,22.1-50.5,49.2c0,27.4,22,48.4,47.5,49.3C736.7,434.5,759.3,411.5,759.2,384.2z"/>
		<path class="st0" d="M1231,227.2c0,52.8,0,105.6,0,158.4c0,14.5-4.1,27.9-11.8,40.2c-7.9,12.7-18.5,22.5-31.9,29.2
			c-10.3,5.2-21.3,7.9-32.9,8.2c-13.8,0.4-26.8-2.5-39-9c-11.1-5.9-20.4-13.9-27.7-24.2c-8.2-11.6-13.1-24.5-14.3-38.6
			c-1.6-17.9,2.5-34.5,12.2-49.6c8-12.6,18.8-22.1,32.2-28.6c13.2-6.4,27.1-8.8,41.7-7.4c15.4,1.4,29,7.1,41.2,16.4
			c0.1,0.1,0.2,0.1,0.5,0.3c0.1-0.4,0.1-0.8,0.1-1.2c0-31.2,0-62.3,0-93.5c0-0.2,0-0.4,0-0.6C1211.2,227.2,1221.1,227.2,1231,227.2z
			 M1102.8,384.2c0,27.5,22.7,50.3,51.2,49.3c25.5-0.9,47.5-22,47.3-49.6c-0.1-26.9-22.4-49.6-50.7-48.9
			C1124.9,335.7,1102.9,356.9,1102.8,384.2z"/>
		<path class="st0" d="M826.9,227.2c0,78.4,0,156.9,0,235.4c-9.9,0-19.6,0-29.6,0c0-0.8,0-1.7,0-2.5c0-76.9,0-153.8,0-230.7
			c0-0.7,0-1.5,0-2.2C807.2,227.2,817.1,227.2,826.9,227.2z"/>
		<path class="st0" d="M915.6,305.4c43-0.3,79.2,34.8,79,79.1c-0.1,43-34.5,78.6-78.9,78.7c-43.4,0.1-79.6-35.2-79-80.3
			C837.3,340.2,872.5,305.2,915.6,305.4z M915.6,433.5c25.5,0.3,49.3-20.2,49.3-49.1c0.1-27.8-22.2-48.8-48.4-49.3
			c-27.1-0.5-50.1,21.2-50.1,49.2C866.3,412.1,888.9,433.7,915.6,433.5z"/>
		<path class="st0" d="M376.3,305.4c42.7-0.3,79.5,35,78.9,80.1c-0.6,42-34.5,77.6-78.9,77.7c-43.4,0.1-79.2-34.9-79-79.5
			C297.5,340.2,333.2,305.1,376.3,305.4z M376.2,433.5c26.9,0.2,49.3-21.6,49.3-49.1c0-28-22.5-48.9-48.4-49.3
			c-27.5-0.4-50.2,21.5-50.1,49.3C327,413,350.4,433.7,376.2,433.5z"/>
		<path class="st0" d="M542.5,305.4c42.9-0.4,79.9,35.4,78.9,80.6c-0.9,40.9-34,77-78.9,77.2c-43,0.1-78.9-34.4-79-78.9
			C463.4,340.2,499.6,305.1,542.5,305.4z M542.3,433.5c27.1,0.2,49.1-21.7,49.4-48.4c0.4-28.4-22.4-49.6-48.5-50
			c-27.8-0.4-49.5,22.1-50,48C492.5,411.3,515.8,433.8,542.3,433.5z"/>
		<path class="st0" d="M1003.2,462.6c0-0.8,0-1.4,0-2.1c0-26-0.1-51.9,0.1-77.9c0.1-13.9,3.9-26.8,11.1-38.7
			c9.3-15.4,22.3-26.4,39-33.1c8.7-3.4,17.7-5.3,27-5.4c0.4,0,0.9,0,1.3,0c0.1,0,0.2,0.1,0.4,0.2c0,9.7,0,19.4,0,29.2
			c-2.7,0.3-5.5,0.6-8.2,1c-9.4,1.5-17.7,5.6-24.7,12c-9.7,8.8-15.1,19.9-16.1,33c-0.1,1.7-0.2,3.4-0.2,5.2c0,24.8,0,49.6,0,74.4
			c0,0.7,0,1.5,0,2.3C1023,462.6,1013.2,462.6,1003.2,462.6z"/>
	</g>
</g>
</svg>
